# Blender v2.93.4 OBJ File: 'untitled.blend'
# www.blender.org
mtllib up_button.mtl
o Circle_Circle.001
v 0.000000 0.000000 0.000000
v 0.000000 0.000000 -1.000000
v -0.195090 0.000000 -0.980785
v -0.382683 0.000000 -0.923880
v -0.555570 0.000000 -0.831470
v -0.707107 0.000000 -0.707107
v -0.831470 0.000000 -0.555570
v -0.923880 0.000000 -0.382683
v -0.980785 0.000000 -0.195090
v -1.000000 0.000000 0.000000
v -0.980785 0.000000 0.195090
v -0.923880 0.000000 0.382683
v -0.831470 0.000000 0.555570
v -0.707107 0.000000 0.707107
v -0.555570 0.000000 0.831470
v -0.382683 0.000000 0.923880
v -0.195090 0.000000 0.980785
v 0.000000 0.000000 1.000000
v 0.195090 0.000000 0.980785
v 0.382683 0.000000 0.923880
v 0.555570 0.000000 0.831470
v 0.707107 0.000000 0.707107
v 0.831469 0.000000 0.555570
v 0.923880 0.000000 0.382684
v 0.980785 0.000000 0.195090
v 1.000000 0.000000 -0.000000
v 0.980785 0.000000 -0.195090
v 0.923879 0.000000 -0.382684
v 0.831470 0.000000 -0.555570
v 0.707107 0.000000 -0.707107
v 0.555570 0.000000 -0.831470
v 0.382683 0.000000 -0.923880
v 0.195090 0.000000 -0.980785
v -0.195090 0.000000 -0.980785
v 0.000000 0.000000 -1.000000
v 0.000000 0.000000 0.000000
v 0.000000 0.000000 0.000000
v 0.000000 0.000000 0.000000
v 0.000000 0.000000 0.000000
v 0.000000 0.000000 0.000000
v 0.000000 0.000000 0.000000
v 0.000000 0.000000 0.000000
v 0.000000 0.000000 0.000000
v 0.000000 0.000000 0.000000
v 0.000000 0.000000 0.000000
v 0.000000 0.000000 0.000000
v 0.000000 0.000000 0.000000
v 0.000000 0.000000 0.000000
v 0.000000 0.000000 0.000000
v 0.000000 0.000000 0.000000
v 0.000000 0.000000 0.000000
v 0.000000 0.000000 0.000000
v 0.000000 0.000000 0.000000
v 0.000000 0.000000 0.000000
v 0.000000 0.000000 0.000000
v 0.000000 0.000000 0.000000
v 0.000000 0.000000 0.000000
v 0.000000 0.000000 0.000000
v 0.000000 0.000000 0.000000
v 0.000000 0.000000 0.000000
v 0.000000 0.000000 0.000000
v 0.000000 0.000000 0.000000
v 0.000000 0.000000 0.000000
v 0.000000 0.000000 0.000000
v 0.000000 0.000000 0.000000
v 0.000000 0.000000 0.000000
v -0.382683 0.000000 -0.923880
v -0.555570 0.000000 -0.831470
v -0.707107 0.000000 -0.707107
v -0.831470 0.000000 -0.555570
v -0.923880 0.000000 -0.382683
v -0.980785 0.000000 -0.195090
v -1.000000 0.000000 0.000000
v -0.980785 0.000000 0.195090
v -0.923880 0.000000 0.382683
v -0.831470 0.000000 0.555570
v -0.707107 0.000000 0.707107
v -0.555570 0.000000 0.831470
v -0.382683 0.000000 0.923880
v -0.195090 0.000000 0.980785
v 0.000000 0.000000 1.000000
v 0.195090 0.000000 0.980785
v 0.382683 0.000000 0.923880
v 0.555570 0.000000 0.831470
v 0.707107 0.000000 0.707107
v 0.831469 0.000000 0.555570
v 0.923880 0.000000 0.382684
v 0.980785 0.000000 0.195090
v 1.000000 0.000000 -0.000000
v 0.980785 0.000000 -0.195090
v 0.923879 0.000000 -0.382684
v 0.831470 0.000000 -0.555570
v 0.707107 0.000000 -0.707107
v 0.555570 0.000000 -0.831470
v 0.382683 0.000000 -0.923880
v 0.195090 0.000000 -0.980785
vt 0.500000 0.500000
vt 0.500000 1.000000
vt 0.402455 0.990393
vt 0.500000 0.500000
vt 0.402455 0.990393
vt 0.308658 0.961940
vt 0.500000 0.500000
vt 0.308658 0.961940
vt 0.222215 0.915735
vt 0.500000 0.500000
vt 0.222215 0.915735
vt 0.146447 0.853553
vt 0.500000 0.500000
vt 0.146447 0.853553
vt 0.084265 0.777785
vt 0.500000 0.500000
vt 0.084265 0.777785
vt 0.038060 0.691342
vt 0.500000 0.500000
vt 0.038060 0.691342
vt 0.009607 0.597545
vt 0.500000 0.500000
vt 0.009607 0.597545
vt 0.000000 0.500000
vt 0.500000 0.500000
vt 0.000000 0.500000
vt 0.009607 0.402455
vt 0.500000 0.500000
vt 0.009607 0.402455
vt 0.038060 0.308658
vt 0.500000 0.500000
vt 0.038060 0.308658
vt 0.084265 0.222215
vt 0.500000 0.500000
vt 0.084265 0.222215
vt 0.146447 0.146447
vt 0.500000 0.500000
vt 0.146447 0.146447
vt 0.222215 0.084265
vt 0.500000 0.500000
vt 0.222215 0.084265
vt 0.308658 0.038060
vt 0.500000 0.500000
vt 0.308658 0.038060
vt 0.402455 0.009607
vt 0.500000 0.500000
vt 0.402455 0.009607
vt 0.500000 0.000000
vt 0.500000 0.500000
vt 0.500000 0.000000
vt 0.597545 0.009607
vt 0.500000 0.500000
vt 0.597545 0.009607
vt 0.691342 0.038060
vt 0.500000 0.500000
vt 0.691342 0.038060
vt 0.777785 0.084265
vt 0.500000 0.500000
vt 0.777785 0.084265
vt 0.853553 0.146447
vt 0.500000 0.500000
vt 0.853553 0.146447
vt 0.915735 0.222215
vt 0.500000 0.500000
vt 0.915735 0.222215
vt 0.961940 0.308658
vt 0.500000 0.500000
vt 0.961940 0.308658
vt 0.990393 0.402455
vt 0.500000 0.500000
vt 0.990393 0.402455
vt 1.000000 0.500000
vt 0.500000 0.500000
vt 1.000000 0.500000
vt 0.990393 0.597545
vt 0.500000 0.500000
vt 0.990393 0.597545
vt 0.961940 0.691342
vt 0.500000 0.500000
vt 0.961940 0.691342
vt 0.915735 0.777785
vt 0.500000 0.500000
vt 0.915735 0.777785
vt 0.853553 0.853553
vt 0.500000 0.500000
vt 0.853553 0.853553
vt 0.777785 0.915735
vt 0.500000 0.500000
vt 0.777785 0.915735
vt 0.691342 0.961940
vt 0.500000 0.500000
vt 0.691342 0.961940
vt 0.597545 0.990393
vt 0.500000 0.500000
vt 0.597545 0.990393
vt 0.500000 1.000000
vn 0.0000 1.0000 0.0000
g Circle_Circle.001_Material.001
usemtl Material.001
s off
f 36/1/1 35/2/1 34/3/1
f 37/4/1 3/5/1 67/6/1
f 38/7/1 4/8/1 68/9/1
f 39/10/1 5/11/1 69/12/1
f 40/13/1 6/14/1 70/15/1
f 41/16/1 7/17/1 71/18/1
f 42/19/1 8/20/1 72/21/1
f 43/22/1 9/23/1 73/24/1
f 44/25/1 10/26/1 74/27/1
f 45/28/1 11/29/1 75/30/1
f 46/31/1 12/32/1 76/33/1
f 47/34/1 13/35/1 77/36/1
f 48/37/1 14/38/1 78/39/1
f 49/40/1 15/41/1 79/42/1
f 50/43/1 16/44/1 80/45/1
f 51/46/1 17/47/1 81/48/1
f 52/49/1 18/50/1 82/51/1
f 53/52/1 19/53/1 83/54/1
f 54/55/1 20/56/1 84/57/1
f 55/58/1 21/59/1 85/60/1
f 56/61/1 22/62/1 86/63/1
f 57/64/1 23/65/1 87/66/1
f 58/67/1 24/68/1 88/69/1
f 59/70/1 25/71/1 89/72/1
f 60/73/1 26/74/1 90/75/1
f 61/76/1 27/77/1 91/78/1
f 62/79/1 28/80/1 92/81/1
f 63/82/1 29/83/1 93/84/1
f 64/85/1 30/86/1 94/87/1
f 65/88/1 31/89/1 95/90/1
f 66/91/1 32/92/1 96/93/1
f 1/94/1 33/95/1 2/96/1
